{"title":"Six.Nations.Rugby.Union-Scotland.v.Wales-2013.03.09.720p.x264","uid":8237191,"size":2931569082,"categoryP":"video","categoryS":"hd___tv_shows","magnet":"?xt=urn:btih:079725e1812dbaa419290df85e82ad5360d43250&amp;dn=Six.Nations.Rugby.Union-Scotland.v.Wales-2013.03.09.720p.x264&amp;tr=udp%3A%2F%2Ftracker.openbittorrent.com%3A80&amp;tr=udp%3A%2F%2Fopen.demonii.com%3A1337&amp;tr=udp%3A%2F%2Ftracker.coppersurfer.tk%3A6969&amp;tr=udp%3A%2F%2Fexodus.desync.com%3A6969","seeders":1,"leechers":0,"uploader":"rugbybill","files":4,"time":1362865669,"description":"SPORT: Six Nations Rugby Union - Scotland v Wales\nOn: BBC 1 HD\nDate: Saturday 9th March 2013 \nKO Time: 14:30\n\nLive coverage of the opening round four fixture of the 2013 Six Nations tournament. Scotland and Wales suffered demoralising defeats at the start of their respective campaigns, but both teams then hit back with impressive wins a week later. The visitors - the reigning Grand Slam champions - are slowly adjusting to being led by Rob Howley, while normal head coach Warren Gatland is busy putting his full focus on assembling a British and Irish Lions squad. When the two nations met in Cardiff last year, Wales kept their nerve to carve out a ruthless 27-13 victory, as three tries in a devastating 14-minute spell early in the second half broke the resistance of Scotland, who had impressively gone in level at the break with three points apiece. Commentary by Andrew Cotter and Jonathan Davies.\n\n\n\nGeneral\nComplete name: 2013.03.09.6N.Scotland.v.Wales.720p.x264.mp4\nFormat: MPEG-4\nFormat profile: Base Media\nCodec ID: isom\nFile size: 2.73 GiB\nDuration: 1h 43mn\nOverall bit rate mode: Variable\nOverall bit rate: 3 757 Kbps\n\nVideo\nID: 1\nFormat: AVC\nFormat/Info: Advanced Video Codec\nFormat profile: &lt;a class=&quot;__cf_email__&quot; href=&quot;/cdn-cgi/l/email-protection&quot; data-cfemail=&quot;c68eafa1ae868af2e8f7&quot;&gt;[email&amp;#160;protected]&lt;/a&gt;&lt;script cf-hash='f9e31' type=&quot;text/javascript&quot;&gt;\n/* &lt;![CDATA[ */!function(){try{var t=&quot;currentScript&quot;in document?document.currentScript:function(){for(var t=document.getElementsByTagName(&quot;script&quot;),e=t.length;e--;)if(t[e].getAttribute(&quot;cf-hash&quot;))return t[e]}();if(t&amp;&amp;t.previousSibling){var e,r,n,i,c=t.previousSibling,a=c.getAttribute(&quot;data-cfemail&quot;);if(a){for(e=&quot;&quot;,r=parseInt(a.substr(0,2),16),n=2;a.length-n;n+=2)i=parseInt(a.substr(n,2),16)^r,e+=String.fromCharCode(i);e=document.createTextNode(e),c.parentNode.replaceChild(e,c)}}}catch(u){}}();/* ]]&gt; */&lt;/script&gt;\nFormat settings, CABAC: Yes\nFormat settings, ReFrames: 5 frames\nCodec ID: avc1\nCodec ID/Info: Advanced Video Coding\nDuration: 1h 43mn\nBit rate: 3 629 Kbps\nMaximum bit rate: 12.4 Mbps\nWidth: 1 280 pixels\nHeight: 720 pixels\nDisplay aspect ratio: 16:9\nFrame rate mode: Constant\nFrame rate: 25.000 fps\nColor space: YUV\nChroma subsampling: 4:2:0\nBit depth: 8 bits\nScan type: Progressive\nBits/(Pixel*Frame): 0.158\nStream size: 2.64 GiB (97%)\nWriting library: x264 core 130 r2273 b3065e6\n\nAudio\nID: 2\nFormat: AAC\nFormat/Info: Advanced Audio Codec\nFormat profile: LC\nCodec ID: 40\nDuration: 1h 43mn\nBit rate mode: Variable\nBit rate: 124 Kbps\nMaximum bit rate: 128 Kbps\nChannel(s): 2 channels\nChannel positions: Front: L R\nSampling rate: 48.0 KHz\nCompression mode: Lossy\nStream size: 92.1 MiB (3%)","torrent":{"xt":"urn:btih:079725e1812dbaa419290df85e82ad5360d43250","amp;dn":"Six.Nations.Rugby.Union-Scotland.v.Wales-2013.03.09.720p.x264","amp;tr":["udp%3A%2F%2Ftracker.openbittorrent.com%3A80","udp%3A%2F%2Fopen.demonii.com%3A1337","udp%3A%2F%2Ftracker.coppersurfer.tk%3A6969","udp%3A%2F%2Fexodus.desync.com%3A6969"],"infoHash":"079725e1812dbaa419290df85e82ad5360d43250","infoHashBuffer":{"type":"Buffer","data":[7,151,37,225,129,45,186,164,25,41,13,248,94,130,173,83,96,212,50,80]},"announce":[],"urlList":[]}}